<svg width="200" height="200" viewBox="0 0 200 200" fill="none" xmlns="http://www.w3.org/2000/svg">
<circle cx="100" cy="100" r="100" fill="#93C048"/>
<path d="M41.9688 50.9805C41.9688 48.2461 42.4896 45.6745 43.5312 43.2656C44.5729 40.7917 46.0052 38.6758 47.8281 36.918C49.651 35.0951 51.7669 33.6628 54.1758 32.6211C56.6497 31.5143 59.2539 30.9609 61.9883 30.9609H137.965C140.699 30.9609 143.271 31.5143 145.68 32.6211C148.154 33.6628 150.302 35.0951 152.125 36.918C153.948 38.6758 155.38 40.7917 156.422 43.2656C157.464 45.6745 157.984 48.2461 157.984 50.9805V69.0469H137.965V50.9805H61.9883V150.98H137.965V116.996H99.9766V96.9766H157.984V150.98C157.984 153.715 157.464 156.319 156.422 158.793C155.38 161.202 153.948 163.318 152.125 165.141C150.302 166.964 148.154 168.396 145.68 169.438C143.271 170.479 140.699 171 137.965 171H61.9883C59.2539 171 56.6497 170.479 54.1758 169.438C51.7669 168.396 49.651 166.964 47.8281 165.141C46.0052 163.318 44.5729 161.202 43.5312 158.793C42.4896 156.319 41.9688 153.715 41.9688 150.98V50.9805Z" fill="white"/>
<path d="M81 49H100V117H81V49Z" fill="white"/>
</svg>
